<svg id="organization-svgrepo-com" xmlns="http://www.w3.org/2000/svg" width="57" height="57" viewBox="0 0 57 57">
  <path id="Path_104" data-name="Path 104" d="M52.25,7.143H28.5V2H11.875V7.143H4.75V53.429H0V56H26.125V43.143h4.75V56H57V53.429H52.25Zm-19,46.286V40.571h-9.5V53.429H7.125V9.714H14.25V4.571H26.125V9.714h23.75V53.429ZM11.875,25.143h9.5V14.857h-9.5Zm2.375-7.714H19v5.143H14.25Zm9.5,7.714h9.5V14.857h-9.5Zm2.375-7.714h4.75v5.143h-4.75Zm9.5,7.714h9.5V14.857h-9.5ZM38,17.429h4.75v5.143H38ZM11.875,38h9.5V27.714h-9.5Zm2.375-7.714H19v5.143H14.25ZM23.75,38h9.5V27.714h-9.5Zm2.375-7.714h4.75v5.143h-4.75ZM35.625,38h9.5V27.714h-9.5ZM38,30.286h4.75v5.143H38Z" fill="#606060"/>
  <path id="Path_105" data-name="Path 105" d="M0,0H57V57H0Z" fill="none"/>
</svg>
