<svg id="urban-model-svgrepo-com" xmlns="http://www.w3.org/2000/svg" width="57" height="57" viewBox="0 0 57 57">
  <path id="Path_107" data-name="Path 107" d="M43.5,18.5H56V56H48.5V53.5h5V21H46V36H43.5Zm2.5,20V56H26V46h7.5V38.5ZM43.5,41H36v7.5H28.5v5h15ZM26,13.5H23.5V56H1V26H6V18.5H16V36h5V11h2.5V1h8.3L36,7.445V26h2.5V36H36V28.5H28.5V26h5V8.188L30.443,3.5H26Zm-5,25H8.5V36h5V21h-5v7.5h-5v25H21Zm-7.5,5h5V41h-5Zm0,5h5V46h-5Z" fill="#606060"/>
  <path id="Path_108" data-name="Path 108" d="M0,0H57V57H0Z" fill="none"/>
</svg>
